<svg id="giarddesign" width="115" height="20" fill="currentColor" xmlns="http://www.w3.org/2000/svg"><path d="M4.62 19.5c-1.253 0-2.34-.22-3.26-.66C.453 18.413 0 17.753 0 16.86c0-.533.22-1.007.66-1.42.453-.413 1.027-.753 1.72-1.02.693-.28 1.48-.527 2.36-.74.173-.053.313-.087.42-.1l.38.4c-.587.187-1.067.38-1.44.58-.373.2-.66.427-.86.68-.2.24-.3.507-.3.8 0 .413.187.7.56.86.387.173.893.26 1.52.26.6 0 1.173-.067 1.72-.2.56-.133 1.02-.327 1.38-.58.36-.253.54-.553.54-.9 0-.227-.1-.407-.3-.54-.2-.133-.48-.2-.84-.2-.32 0-.647.033-.98.1-.333.053-.747.14-1.24.26-.427.12-.793.207-1.1.26a4.059 4.059 0 0 1-2.38-.18c-.453-.2-.82-.467-1.1-.8-.267-.347-.4-.74-.4-1.18 0-.613.307-1.147.92-1.6.627-.467 1.487-.873 2.58-1.22l.66.58a10.11 10.11 0 0 0-.48.16c-.347.12-.607.253-.78.4-.173.147-.26.347-.26.6 0 .213.087.373.26.48.187.107.42.16.7.16.307 0 .627-.02.96-.06.333-.053.68-.12 1.04-.2a25.88 25.88 0 0 1 1.5-.24c.427-.053.893-.08 1.4-.08.893 0 1.633.213 2.22.64.6.427.9 1.08.9 1.96 0 1.013-.38 1.873-1.14 2.58-.747.72-1.687 1.253-2.82 1.6-1.133.36-2.253.54-3.36.54Zm.84-7.7c-.947 0-1.787-.16-2.52-.48-.72-.333-1.287-.793-1.7-1.38-.4-.587-.6-1.247-.6-1.98 0-.72.2-1.367.6-1.94.413-.587.987-1.04 1.72-1.36.733-.333 1.567-.5 2.5-.5.573 0 1.033.047 1.38.14.36.093.747.22 1.16.38.16.067.307.127.44.18.147.04.287.06.42.06.347 0 .593-.12.74-.36.147-.24.22-.553.22-.94l2.52.8c-.013.507-.22.9-.62 1.18-.387.267-.9.4-1.54.4-.16-.013-.34-.027-.54-.04.427.587.64 1.253.64 2 0 .733-.207 1.393-.62 1.98-.4.587-.967 1.047-1.7 1.38-.733.32-1.567.48-2.5.48Zm0-1.96a1.551 1.551 0 0 0 1.46-.9c.133-.293.2-.62.2-.98 0-.533-.153-.973-.46-1.32-.293-.347-.693-.52-1.2-.52-.333 0-.627.08-.88.24a1.69 1.69 0 0 0-.6.66c-.133.28-.2.593-.2.94 0 .547.153 1 .46 1.36.32.347.727.52 1.22.52ZM13.063 4.44h3.16v8.28c0 .947.047 1.813.14 2.6h-3.3V4.44ZM13.023.5h3.22v2.78h-3.22V.5ZM27.683 15.6c-.854 0-1.52-.247-2-.74s-.72-1.213-.72-2.16V8.38c0-.64-.154-1.12-.46-1.44-.294-.333-.747-.5-1.36-.5-.64 0-1.26.187-1.86.56-.6.373-1.12.92-1.56 1.64l-2.16-1.68c.76-.92 1.64-1.613 2.64-2.08a7.564 7.564 0 0 1 3.28-.72c1.093 0 1.98.173 2.66.52.68.333 1.18.813 1.5 1.44.32.613.48 1.34.48 2.18v4.56c.013.227.066.393.16.5.093.107.226.16.4.16.146 0 .287-.007.42-.02.146-.027.3-.067.46-.12l-.4 1.94c-.227.093-.467.16-.72.2-.254.053-.507.08-.76.08Zm-6.52 0c-1.093 0-1.96-.28-2.6-.84-.627-.573-.94-1.307-.94-2.2 0-.787.293-1.487.88-2.1.587-.627 1.46-1.133 2.62-1.52 1.16-.387 2.586-.647 4.28-.78v2c-1.027.093-1.873.227-2.54.4-.654.173-1.147.393-1.48.66-.32.253-.48.56-.48.92 0 .293.107.533.32.72.227.173.533.26.92.26.52 0 .993-.113 1.42-.34a2.615 2.615 0 0 0 1.02-.96c.253-.413.38-.9.38-1.46l.62.18c0 .853-.153 1.667-.46 2.44a4.3 4.3 0 0 1-1.46 1.88c-.654.493-1.487.74-2.5.74ZM30.426 4.44h3.18v2.6c.427-.92.933-1.627 1.52-2.12.587-.507 1.193-.76 1.82-.76.373 0 .707.06 1 .18.293.107.587.26.88.46l-1.28 2.78a3.522 3.522 0 0 0-.76-.4 2.035 2.035 0 0 0-.78-.14c-.427 0-.82.127-1.18.38-.36.24-.653.607-.88 1.1-.227.493-.34 1.087-.34 1.78v2.42c0 .947.047 1.813.14 2.6h-3.32V4.44ZM43.601 15.6c-1.04 0-1.946-.233-2.72-.7a4.851 4.851 0 0 1-1.8-2c-.413-.867-.62-1.873-.62-3.02s.207-2.147.62-3c.427-.867 1.027-1.533 1.8-2 .774-.48 1.68-.72 2.72-.72.734 0 1.42.187 2.06.56.64.373 1.16.887 1.56 1.54V1.02H50v11.7c0 .947.053 1.813.16 2.6h-2.939v-1.9a4.33 4.33 0 0 1-1.54 1.6c-.626.387-1.32.58-2.08.58Zm-1.8-5.72c0 .653.114 1.233.34 1.74.227.493.54.88.94 1.16.4.267.874.4 1.42.4.494 0 .947-.14 1.36-.42.414-.28.74-.647.98-1.1.254-.467.38-.96.38-1.48v-.6a3.022 3.022 0 0 0-1.4-2.58 2.313 2.313 0 0 0-1.32-.42c-.546 0-1.02.14-1.42.42-.4.267-.713.653-.94 1.16-.226.493-.34 1.067-.34 1.72ZM57.043 15.6c-1.013 0-1.913-.24-2.7-.72-.786-.48-1.4-1.153-1.84-2.02-.426-.867-.64-1.86-.64-2.98 0-1.12.214-2.113.64-2.98.44-.867 1.054-1.54 1.84-2.02.787-.48 1.687-.72 2.7-.72a4.19 4.19 0 0 1 2.36.7 4.49 4.49 0 0 1 1.66 1.86v-5.7h1.82v11.7c0 .96.034 1.827.1 2.6h-1.92v-2.3a4.487 4.487 0 0 1-1.64 1.88c-.706.467-1.5.7-2.38.7Zm-3.22-5.72c0 .827.154 1.567.46 2.22.307.64.734 1.14 1.28 1.5.547.36 1.174.54 1.88.54.667 0 1.274-.173 1.82-.52.56-.347 1-.8 1.32-1.36.32-.573.48-1.2.48-1.88v-1c0-.68-.166-1.307-.5-1.88a3.592 3.592 0 0 0-1.32-1.36 3.294 3.294 0 0 0-1.8-.52c-.706 0-1.333.18-1.88.54-.546.36-.973.867-1.28 1.52-.306.64-.46 1.373-.46 2.2ZM70.296 15.6c-.987 0-1.9-.207-2.74-.62a4.882 4.882 0 0 1-2.02-1.84c-.493-.813-.74-1.8-.74-2.96s.233-2.193.7-3.1c.48-.92 1.133-1.633 1.96-2.14.84-.52 1.793-.78 2.86-.78 1.093 0 2.02.247 2.78.74.76.493 1.333 1.193 1.72 2.1.4.893.6 1.94.6 3.14h-9.72V8.72h8.5l-.66.58c0-.707-.127-1.34-.38-1.9a2.997 2.997 0 0 0-1.12-1.34c-.48-.32-1.053-.48-1.72-.48-.72 0-1.353.187-1.9.56-.533.36-.953.887-1.26 1.58-.307.68-.46 1.473-.46 2.38 0 .92.167 1.687.5 2.3.333.613.773 1.067 1.32 1.36a3.89 3.89 0 0 0 1.8.42c.947 0 1.733-.247 2.36-.74a4.145 4.145 0 0 0 1.38-1.86l1.52 1.06c-.627.96-1.387 1.693-2.28 2.2-.893.507-1.893.76-3 .76ZM81.828 15.6a7.013 7.013 0 0 1-3.18-.74 6.196 6.196 0 0 1-2.34-2.08l1.36-1.12a4.235 4.235 0 0 0 1.68 1.9c.76.453 1.6.68 2.52.68.48 0 .906-.067 1.28-.2.373-.147.666-.347.88-.6.213-.267.32-.58.32-.94 0-.387-.14-.707-.42-.96a2.881 2.881 0 0 0-1.04-.62c-.4-.16-.96-.333-1.68-.52-.894-.24-1.62-.467-2.18-.68a4.18 4.18 0 0 1-1.42-.96c-.387-.413-.58-.96-.58-1.64 0-.573.166-1.087.5-1.54.333-.453.806-.8 1.42-1.04.613-.253 1.306-.38 2.08-.38.973 0 1.873.167 2.7.5.84.333 1.58.927 2.22 1.78l-1.36 1.12a3.291 3.291 0 0 0-1.46-1.52 4.454 4.454 0 0 0-2.12-.52c-.654 0-1.187.133-1.6.4-.4.253-.6.593-.6 1.02 0 .347.126.633.38.86.266.227.593.413.98.56.386.133.913.287 1.58.46.933.253 1.686.493 2.26.72a3.904 3.904 0 0 1 1.5 1.02c.426.44.64 1.027.64 1.76 0 .667-.194 1.253-.58 1.76-.387.493-.907.873-1.56 1.14-.64.253-1.367.38-2.18.38ZM87.836 4.44h1.82v8.28c0 .96.033 1.827.1 2.6h-1.92V4.44Zm-.12-3.58h2.06V2.8h-2.06V.86ZM95.293 19.5c-1.12 0-2.08-.227-2.88-.68-.8-.453-1.2-1.12-1.2-2 0-.493.174-.933.52-1.32.347-.387.814-.713 1.4-.98.587-.28 1.287-.52 2.1-.72.16-.04.3-.073.42-.1l.24.32c-.613.2-1.126.413-1.54.64-.413.213-.74.467-.98.76s-.36.64-.36 1.04c0 .56.247.973.74 1.24.507.267 1.134.4 1.88.4.8 0 1.58-.12 2.34-.36.774-.24 1.4-.58 1.88-1.02.48-.427.72-.92.72-1.48 0-.387-.133-.687-.4-.9-.266-.227-.653-.34-1.16-.34-.32 0-.666.04-1.04.12-.36.067-.853.18-1.48.34-.52.147-.953.26-1.3.34-.346.067-.653.1-.92.1-.48 0-.926-.067-1.34-.2a2.523 2.523 0 0 1-.98-.62 1.46 1.46 0 0 1-.36-.98c0-.56.28-1.053.84-1.48.56-.44 1.314-.787 2.26-1.04l.38.5c-.28.08-.513.167-.7.26-.4.16-.693.347-.88.56-.186.2-.28.42-.28.66 0 .267.12.453.36.56.24.107.554.16.94.16.334 0 .68-.033 1.04-.1.36-.08.774-.18 1.24-.3.56-.147 1.04-.253 1.44-.32.414-.08.84-.12 1.28-.12.907 0 1.634.213 2.18.64.547.427.82 1.047.82 1.86 0 .92-.36 1.727-1.08 2.42-.706.693-1.62 1.22-2.74 1.58-1.106.373-2.24.56-3.4.56Zm1.08-7.82c-.853 0-1.606-.16-2.26-.48a3.919 3.919 0 0 1-1.54-1.36 3.537 3.537 0 0 1-.54-1.92c0-.707.18-1.347.54-1.92a3.774 3.774 0 0 1 1.54-1.34c.667-.333 1.42-.5 2.26-.5.574 0 1.047.06 1.42.18.374.12.767.28 1.18.48.227.12.42.213.58.28.16.053.327.08.5.08.4 0 .687-.12.86-.36.187-.253.28-.58.28-.98l1.52.52c-.013.533-.22.94-.62 1.22s-.866.42-1.4.42a4.89 4.89 0 0 1-.54-.04c.387.56.58 1.213.58 1.96 0 .707-.18 1.347-.54 1.92-.36.573-.873 1.027-1.54 1.36-.666.32-1.426.48-2.28.48Zm0-1.22c.52 0 .967-.107 1.34-.32.374-.227.66-.533.86-.92.2-.4.3-.833.3-1.3 0-.72-.226-1.32-.68-1.8-.44-.493-1.046-.74-1.82-.74-.506 0-.953.113-1.34.34-.373.227-.66.533-.86.92-.186.373-.28.8-.28 1.28 0 .733.22 1.34.66 1.82.454.48 1.06.72 1.82.72ZM104.008 4.44h1.82V7.6a5.49 5.49 0 0 1 1.14-1.8 5.252 5.252 0 0 1 1.68-1.2 4.48 4.48 0 0 1 1.92-.44c.813 0 1.493.16 2.04.48.56.307.973.733 1.24 1.28.28.547.42 1.18.42 1.9v4.9c0 .96.033 1.827.1 2.6h-1.92V8.1c0-.8-.2-1.407-.6-1.82-.387-.413-1.007-.62-1.86-.62-.627 0-1.267.193-1.92.58-.64.387-1.174.933-1.6 1.64-.427.693-.64 1.5-.64 2.42v5.02h-1.82V4.44Z"/></svg>